<svg width="134" height="144" viewBox="0 0 134 144" fill="none" xmlns="http://www.w3.org/2000/svg">
<path fill-rule="evenodd" clip-rule="evenodd" d="M123.166 119.583C123.166 119.583 105.009 134.146 68.8761 128.119C41.4627 123.547 26.8416 93.328 26.8416 77.0847C26.8416 38.5732 55.3452 29.8091 74.6156 29.8091C93.8857 29.8091 106.457 48.5966 106.457 63.1429C106.457 77.6891 96.1686 90.4123 80.1579 90.4123C64.1475 90.4123 59.4056 79.1722 59.4056 68.8382C59.4056 58.5045 67.7663 54.8637 75.3913 54.8637C83.0163 54.8637 85.6271 61.3735 85.6271 66.9684C85.6271 72.5636 81.286 74.5672 77.6652 74.5672C74.0444 74.5672 73.6864 72.7405 72.3006 70.8207C70.9146 68.9012 74.068 61.6348 68.8761 61.6348C63.6843 61.6348 62.7165 69.9882 62.7165 69.9882C62.7165 69.9882 64.6093 86.1131 80.1579 85.835C95.7068 85.5565 103.083 73.5359 100.939 61.6348C98.7958 49.7334 87.2457 37.087 66.9749 39.6425C46.7041 42.1979 38.4277 62.6796 42.0758 84.5676C45.7239 106.456 71.9457 119.138 92.5627 114.575C113.18 110.013 133.714 95.0867 133.714 57.2437C133.714 19.4003 100.939 -3.34693 61.8584 0.401946C22.7773 4.1508 -1.48247 38.3181 0.0703639 79.3707C1.6232 120.423 40.5773 142.782 73.517 143.934C106.457 145.087 126.65 126.019 126.65 126.019C126.65 126.019 131.192 121.969 129.411 118.807C127.631 115.644 123.166 119.583 123.166 119.583Z" fill="url(#paint0_linear_1422_35182)"/>
<defs>
<linearGradient id="paint0_linear_1422_35182" x1="0.142075" y1="-0.00189549" x2="76.8181" y2="169.614" gradientUnits="userSpaceOnUse">
<stop stop-color="white"/>
<stop offset="1" stop-color="white" stop-opacity="0"/>
</linearGradient>
</defs>
</svg>
