<svg width="11" height="13" viewBox="0 0 11 13" fill="none" xmlns="http://www.w3.org/2000/svg">
<path d="M10.792 11.7285H0.541992C0.473242 11.7285 0.416992 11.7848 0.416992 11.8535L0.416992 12.791C0.416992 12.8598 0.473242 12.916 0.541992 12.916H10.792C10.8607 12.916 10.917 12.8598 10.917 12.791V11.8535C10.917 11.7848 10.8607 11.7285 10.792 11.7285ZM10.792 0.416016L0.541992 0.416016C0.473242 0.416016 0.416992 0.472266 0.416992 0.541016L0.416992 1.47852C0.416992 1.54727 0.473242 1.60352 0.541992 1.60352L10.792 1.60352C10.8607 1.60352 10.917 1.54727 10.917 1.47852V0.541016C10.917 0.472266 10.8607 0.416016 10.792 0.416016ZM7.21074 4.57227C7.30449 4.57227 7.35762 4.46289 7.29981 4.38945L5.72481 2.3957C5.71438 2.38221 5.701 2.37129 5.6857 2.36377C5.6704 2.35626 5.65357 2.35235 5.63652 2.35235C5.61947 2.35235 5.60265 2.35626 5.58735 2.36377C5.57204 2.37129 5.55867 2.38221 5.54824 2.3957L3.97324 4.38945C3.96012 4.40613 3.95196 4.42617 3.94971 4.44728C3.94745 4.46838 3.95118 4.48969 3.96048 4.50877C3.96977 4.52785 3.98425 4.54393 4.00226 4.55516C4.02027 4.56639 4.04108 4.57232 4.0623 4.57227H5.10449L5.10449 8.75977H4.12324C4.02949 8.75977 3.97637 8.86914 4.03418 8.94258L5.60918 10.9348C5.65449 10.9926 5.74199 10.9926 5.78574 10.9348L7.36074 8.94258C7.41856 8.86914 7.36699 8.75977 7.27168 8.75977H6.22949L6.22949 4.57227H7.21074Z" fill="black"/>
</svg>
