<svg width="12" height="12" viewBox="0 0 12 12" fill="none" xmlns="http://www.w3.org/2000/svg">
<path d="M5.66699 0.166016C4.84449 0.166016 4.16699 0.843516 4.16699 1.66602C4.16699 1.84202 4.20399 2.00802 4.26099 2.16602L1.76099 2.16602L1.68249 2.57252L0.182492 10.0725L0.166992 10.119L0.166992 11.166H11.167V10.119L11.1515 10.0725L9.65149 2.57252L9.57299 2.16602H7.07299C7.13305 2.00605 7.16486 1.83687 7.16699 1.66602C7.16699 0.843516 6.48949 0.166016 5.66699 0.166016ZM5.66699 1.16602C5.94849 1.16602 6.16699 1.38502 6.16699 1.66602C6.16699 1.94752 5.94799 2.16602 5.66699 2.16602C5.38549 2.16602 5.16699 1.94702 5.16699 1.66602C5.16699 1.38452 5.38599 1.16602 5.66699 1.16602ZM2.57299 3.16602L8.76099 3.16602L10.167 10.166H1.16699L2.57299 3.16602Z" fill="black"/>
</svg>
